<?xml version="1.0" encoding="UTF-8" standalone="no"?><!DOCTYPE svg PUBLIC "-//W3C//DTD SVG 1.1//EN" "http://www.w3.org/Graphics/SVG/1.1/DTD/svg11.dtd"><!-- Generated by graphviz version 2.40.1 (20161225.0304)
 --><!-- Title: G Pages: 1 --><svg xmlns="http://www.w3.org/2000/svg" xmlns:xlink="http://www.w3.org/1999/xlink" width="1005pt" height="548pt" viewBox="0.00 0.00 1004.81 548.00">
<g id="graph0" class="graph" transform="scale(1 1) rotate(0) translate(4 544)">
<title>G</title>
<polygon fill="#ffffff" stroke="transparent" points="-4,4 -4,-544 1000.8125,-544 1000.8125,4 -4,4"/>
<!-- Initialize -->
<g id="node1" class="node">
<title>Initialize</title>
<ellipse fill="none" stroke="#000000" cx="443.0295" cy="-522" rx="45.217" ry="18"/>
<text text-anchor="middle" x="443.0295" y="-517.8" font-family="Times,serif" font-size="14.00" fill="#000000">Initialize</text>
</g>
<!-- PersonMapping -->
<g id="node2" class="node">
<title>PersonMapping</title>
<ellipse fill="none" stroke="#000000" cx="649.0295" cy="-450" rx="72.3748" ry="18"/>
<text text-anchor="middle" x="649.0295" y="-445.8" font-family="Times,serif" font-size="14.00" fill="#000000">PersonMapping</text>
</g>
<!-- Initialize&#45;&gt;PersonMapping -->
<g id="edge1" class="edge">
<title>Initialize-&gt;PersonMapping</title>
<path fill="none" stroke="#000000" d="M477.5093,-509.9488C510.2084,-498.52 559.7694,-481.1977 597.2216,-468.1076"/>
<polygon fill="#000000" stroke="#000000" points="598.666,-471.3105 606.9512,-464.707 596.3564,-464.7025 598.666,-471.3105"/>
</g>
<!-- QueryLoading -->
<g id="node16" class="node">
<title>QueryLoading</title>
<ellipse fill="none" stroke="#000000" cx="237.0295" cy="-450" rx="67.2004" ry="18"/>
<text text-anchor="middle" x="237.0295" y="-445.8" font-family="Times,serif" font-size="14.00" fill="#000000">QueryLoading</text>
</g>
<!-- Initialize&#45;&gt;QueryLoading -->
<g id="edge34" class="edge">
<title>Initialize-&gt;QueryLoading</title>
<path fill="none" stroke="#000000" d="M408.5497,-509.9488C375.5352,-498.4098 325.3319,-480.863 287.757,-467.73"/>
<polygon fill="#000000" stroke="#000000" points="288.6023,-464.3179 278.0075,-464.3224 286.2927,-470.9259 288.6023,-464.3179"/>
</g>
<!-- PersonGraph -->
<g id="node3" class="node">
<title>PersonGraph</title>
<ellipse fill="none" stroke="#000000" cx="914.0295" cy="-378" rx="61.3974" ry="18"/>
<text text-anchor="middle" x="914.0295" y="-373.8" font-family="Times,serif" font-size="14.00" fill="#000000">PersonGraph</text>
</g>
<!-- PersonMapping&#45;&gt;PersonGraph -->
<g id="edge2" class="edge">
<title>PersonMapping-&gt;PersonGraph</title>
<path fill="none" stroke="#000000" d="M697.9434,-436.7102C743.5992,-424.3056 811.6338,-405.8207 859.1282,-392.9166"/>
<polygon fill="#000000" stroke="#000000" points="860.2033,-396.2514 868.9357,-390.2519 858.3679,-389.4963 860.2033,-396.2514"/>
</g>
<!-- HasInterest -->
<g id="node4" class="node">
<title>HasInterest</title>
<ellipse fill="none" stroke="#000000" cx="518.0295" cy="-378" rx="55.0092" ry="18"/>
<text text-anchor="middle" x="518.0295" y="-373.8" font-family="Times,serif" font-size="14.00" fill="#000000">HasInterest</text>
</g>
<!-- PersonMapping&#45;&gt;HasInterest -->
<g id="edge3" class="edge">
<title>PersonMapping-&gt;HasInterest</title>
<path fill="none" stroke="#000000" d="M618.9754,-433.4817C600.1097,-423.1128 575.6299,-409.6582 555.5019,-398.5955"/>
<polygon fill="#000000" stroke="#000000" points="557.0453,-395.45 546.5959,-393.7006 553.6737,-401.5845 557.0453,-395.45"/>
</g>
<!-- Birthday -->
<g id="node5" class="node">
<title>Birthday</title>
<ellipse fill="none" stroke="#000000" cx="400.0295" cy="-378" rx="44.6626" ry="18"/>
<text text-anchor="middle" x="400.0295" y="-373.8" font-family="Times,serif" font-size="14.00" fill="#000000">Birthday</text>
</g>
<!-- PersonMapping&#45;&gt;Birthday -->
<g id="edge4" class="edge">
<title>PersonMapping-&gt;Birthday</title>
<path fill="none" stroke="#000000" d="M599.133,-436.9429C559.6133,-426.4183 503.0871,-410.958 454.0295,-396 450.7152,-394.9895 447.2958,-393.9181 443.8623,-392.8215"/>
<polygon fill="#000000" stroke="#000000" points="444.816,-389.4513 434.2239,-389.6938 442.6553,-396.1095 444.816,-389.4513"/>
</g>
<!-- PersonPlace -->
<g id="node6" class="node">
<title>PersonPlace</title>
<ellipse fill="none" stroke="#000000" cx="649.0295" cy="-378" rx="58.4628" ry="18"/>
<text text-anchor="middle" x="649.0295" y="-373.8" font-family="Times,serif" font-size="14.00" fill="#000000">PersonPlace</text>
</g>
<!-- PersonMapping&#45;&gt;PersonPlace -->
<g id="edge5" class="edge">
<title>PersonMapping-&gt;PersonPlace</title>
<path fill="none" stroke="#000000" d="M649.0295,-431.8314C649.0295,-424.131 649.0295,-414.9743 649.0295,-406.4166"/>
<polygon fill="#000000" stroke="#000000" points="652.5296,-406.4132 649.0295,-396.4133 645.5296,-406.4133 652.5296,-406.4132"/>
</g>
<!-- CommentCreatorMap -->
<g id="node7" class="node">
<title>CommentCreatorMap</title>
<ellipse fill="none" stroke="#000000" cx="901.0295" cy="-306" rx="95.5664" ry="18"/>
<text text-anchor="middle" x="901.0295" y="-301.8" font-family="Times,serif" font-size="14.00" fill="#000000">CommentCreatorMap</text>
</g>
<!-- PersonGraph&#45;&gt;CommentCreatorMap -->
<g id="edge6" class="edge">
<title>PersonGraph-&gt;CommentCreatorMap</title>
<path fill="none" stroke="#000000" d="M910.749,-359.8314C909.3587,-352.131 907.7054,-342.9743 906.1603,-334.4166"/>
<polygon fill="#000000" stroke="#000000" points="909.5753,-333.6322 904.3541,-324.4133 902.6867,-334.8761 909.5753,-333.6322"/>
</g>
<!-- Query4 -->
<g id="node19" class="node">
<title>Query4</title>
<ellipse fill="none" stroke="#000000" cx="128.0295" cy="-162" rx="39.9896" ry="18"/>
<text text-anchor="middle" x="128.0295" y="-157.8" font-family="Times,serif" font-size="14.00" fill="#000000">Query4</text>
</g>
<!-- PersonGraph&#45;&gt;Query4 -->
<g id="edge19" class="edge">
<title>PersonGraph-&gt;Query4</title>
<path fill="none" stroke="#000000" d="M877.1112,-363.4941C830.9303,-345.4336 749.3672,-313.8152 679.0295,-288 588.3751,-254.7282 567.6827,-239.5439 474.0295,-216 370.0693,-189.865 245.1827,-174.1148 177.5102,-166.8421"/>
<polygon fill="#000000" stroke="#000000" points="177.465,-163.3179 167.1524,-165.7474 176.7291,-170.2791 177.465,-163.3179"/>
</g>
<!-- Query1 -->
<g id="node20" class="node">
<title>Query1</title>
<ellipse fill="none" stroke="#000000" cx="774.0295" cy="-234" rx="39.9896" ry="18"/>
<text text-anchor="middle" x="774.0295" y="-229.8" font-family="Times,serif" font-size="14.00" fill="#000000">Query1</text>
</g>
<!-- PersonGraph&#45;&gt;Query1 -->
<g id="edge20" class="edge">
<title>PersonGraph-&gt;Query1</title>
<path fill="none" stroke="#000000" d="M865.8691,-366.7148C841.6131,-358.6604 813.6832,-345.3601 796.0295,-324 781.7635,-306.7389 776.5075,-281.6348 774.6809,-262.323"/>
<polygon fill="#000000" stroke="#000000" points="778.1677,-262.0103 773.9835,-252.2768 771.1845,-262.4952 778.1677,-262.0103"/>
</g>
<!-- Query2 -->
<g id="node21" class="node">
<title>Query2</title>
<ellipse fill="none" stroke="#000000" cx="425.0295" cy="-234" rx="39.9896" ry="18"/>
<text text-anchor="middle" x="425.0295" y="-229.8" font-family="Times,serif" font-size="14.00" fill="#000000">Query2</text>
</g>
<!-- PersonGraph&#45;&gt;Query2 -->
<g id="edge22" class="edge">
<title>PersonGraph-&gt;Query2</title>
<path fill="none" stroke="#000000" d="M867.7474,-365.9657C859.8409,-363.9481 851.7042,-361.8954 844.0295,-360 776.6301,-343.3545 755.6924,-351.691 692.0295,-324 665.5789,-312.4949 664.3888,-299.7128 638.0295,-288 584.0168,-263.9994 517.366,-249.2707 473.1574,-241.3818"/>
<polygon fill="#000000" stroke="#000000" points="473.703,-237.9243 463.2516,-239.6617 472.5053,-244.821 473.703,-237.9243"/>
</g>
<!-- Query3 -->
<g id="node22" class="node">
<title>Query3</title>
<ellipse fill="none" stroke="#000000" cx="589.0295" cy="-306" rx="39.9896" ry="18"/>
<text text-anchor="middle" x="589.0295" y="-301.8" font-family="Times,serif" font-size="14.00" fill="#000000">Query3</text>
</g>
<!-- PersonGraph&#45;&gt;Query3 -->
<g id="edge27" class="edge">
<title>PersonGraph-&gt;Query3</title>
<path fill="none" stroke="#000000" d="M868.5758,-365.8323C860.426,-363.7877 851.9935,-361.7607 844.0295,-360 758.403,-341.0693 735.3091,-344.4368 650.0295,-324 643.9694,-322.5477 637.6166,-320.861 631.3946,-319.1137"/>
<polygon fill="#000000" stroke="#000000" points="632.3642,-315.7507 621.7859,-316.3431 630.4248,-322.4767 632.3642,-315.7507"/>
</g>
<!-- Default -->
<g id="node18" class="node">
<title>Default</title>
<ellipse fill="none" stroke="#000000" cx="425.0295" cy="-306" rx="39.9838" ry="18"/>
<text text-anchor="middle" x="425.0295" y="-301.8" font-family="Times,serif" font-size="14.00" fill="#000000">Default</text>
</g>
<!-- HasInterest&#45;&gt;Default -->
<g id="edge17" class="edge">
<title>HasInterest-&gt;Default</title>
<path fill="none" stroke="#000000" d="M496.4597,-361.3008C483.6621,-351.393 467.2878,-338.7161 453.4458,-327.9997"/>
<polygon fill="#000000" stroke="#000000" points="455.259,-324.9772 445.2091,-321.6229 450.9737,-330.5122 455.259,-324.9772"/>
</g>
<!-- HasInterest&#45;&gt;Query2 -->
<g id="edge23" class="edge">
<title>HasInterest-&gt;Query2</title>
<path fill="none" stroke="#000000" d="M510.9844,-359.9408C503.2609,-341.1669 489.841,-311.3208 474.0295,-288 466.8865,-277.4646 457.7957,-266.8749 449.389,-257.8987"/>
<polygon fill="#000000" stroke="#000000" points="451.6977,-255.2501 442.2436,-250.4679 446.652,-260.102 451.6977,-255.2501"/>
</g>
<!-- HasInterest&#45;&gt;Query3 -->
<g id="edge28" class="edge">
<title>HasInterest-&gt;Query3</title>
<path fill="none" stroke="#000000" d="M535.2166,-360.5708C544.2429,-351.4174 555.4444,-340.0582 565.2866,-330.0773"/>
<polygon fill="#000000" stroke="#000000" points="567.9602,-332.3508 572.4895,-322.7729 562.9759,-327.4358 567.9602,-332.3508"/>
</g>
<!-- Birthday&#45;&gt;Default -->
<g id="edge18" class="edge">
<title>Birthday-&gt;Default</title>
<path fill="none" stroke="#000000" d="M406.3381,-359.8314C409.1126,-351.8406 412.4316,-342.2819 415.4978,-333.4514"/>
<polygon fill="#000000" stroke="#000000" points="418.8357,-334.5082 418.8096,-323.9134 412.223,-332.2121 418.8357,-334.5082"/>
</g>
<!-- Birthday&#45;&gt;Query2 -->
<g id="edge24" class="edge">
<title>Birthday-&gt;Query2</title>
<path fill="none" stroke="#000000" d="M388.8819,-360.3931C378.7113,-341.988 366.5942,-312.4389 376.0295,-288 380.5434,-276.3084 388.8941,-265.5837 397.439,-256.8266"/>
<polygon fill="#000000" stroke="#000000" points="400.1133,-259.1112 404.9066,-249.6626 395.2673,-254.0598 400.1133,-259.1112"/>
</g>
<!-- PersonPlace&#45;&gt;Query3 -->
<g id="edge29" class="edge">
<title>PersonPlace-&gt;Query3</title>
<path fill="none" stroke="#000000" d="M634.198,-360.2022C626.8237,-351.3531 617.7901,-340.5127 609.7447,-330.8583"/>
<polygon fill="#000000" stroke="#000000" points="612.3678,-328.5388 603.2772,-323.0972 606.9903,-333.0201 612.3678,-328.5388"/>
</g>
<!-- CommentCreatorMap&#45;&gt;Query1 -->
<g id="edge21" class="edge">
<title>CommentCreatorMap-&gt;Query1</title>
<path fill="none" stroke="#000000" d="M870.6098,-288.7542C851.7316,-278.0516 827.4414,-264.2808 807.9439,-253.2271"/>
<polygon fill="#000000" stroke="#000000" points="809.5069,-250.0899 799.0815,-248.2027 806.0546,-256.1794 809.5069,-250.0899"/>
</g>
<!-- IndexQ2orQ3 -->
<g id="node8" class="node">
<title>IndexQ2orQ3</title>
<ellipse fill="none" stroke="#000000" cx="494.0295" cy="-450" rx="64.8331" ry="18"/>
<text text-anchor="middle" x="494.0295" y="-445.8" font-family="Times,serif" font-size="14.00" fill="#000000">IndexQ2orQ3</text>
</g>
<!-- IndexQ2orQ3&#45;&gt;HasInterest -->
<g id="edge7" class="edge">
<title>IndexQ2orQ3-&gt;HasInterest</title>
<path fill="none" stroke="#000000" d="M500.0857,-431.8314C502.7493,-423.8406 505.9355,-414.2819 508.879,-405.4514"/>
<polygon fill="#000000" stroke="#000000" points="512.2164,-406.5071 512.0584,-395.9134 505.5756,-404.2934 512.2164,-406.5071"/>
</g>
<!-- IndexQ2 -->
<g id="node9" class="node">
<title>IndexQ2</title>
<ellipse fill="none" stroke="#000000" cx="367.0295" cy="-450" rx="44.6472" ry="18"/>
<text text-anchor="middle" x="367.0295" y="-445.8" font-family="Times,serif" font-size="14.00" fill="#000000">IndexQ2</text>
</g>
<!-- IndexQ2&#45;&gt;Birthday -->
<g id="edge8" class="edge">
<title>IndexQ2-&gt;Birthday</title>
<path fill="none" stroke="#000000" d="M375.1868,-432.2022C378.9152,-424.0675 383.4149,-414.2501 387.5545,-405.2181"/>
<polygon fill="#000000" stroke="#000000" points="390.8668,-406.3915 391.8517,-395.8425 384.5033,-403.4749 390.8668,-406.3915"/>
</g>
<!-- IndexQ3 -->
<g id="node10" class="node">
<title>IndexQ3</title>
<ellipse fill="none" stroke="#000000" cx="784.0295" cy="-450" rx="44.6472" ry="18"/>
<text text-anchor="middle" x="784.0295" y="-445.8" font-family="Times,serif" font-size="14.00" fill="#000000">IndexQ3</text>
</g>
<!-- IndexQ3&#45;&gt;PersonPlace -->
<g id="edge9" class="edge">
<title>IndexQ3-&gt;PersonPlace</title>
<path fill="none" stroke="#000000" d="M757.0347,-435.6028C737.0167,-424.9265 709.4565,-410.2277 687.1871,-398.3507"/>
<polygon fill="#000000" stroke="#000000" points="688.7879,-395.2379 678.3173,-393.6202 685.4938,-401.4143 688.7879,-395.2379"/>
</g>
<!-- NamePlace -->
<g id="node15" class="node">
<title>NamePlace</title>
<ellipse fill="none" stroke="#000000" cx="780.0295" cy="-378" rx="55.0111" ry="18"/>
<text text-anchor="middle" x="780.0295" y="-373.8" font-family="Times,serif" font-size="14.00" fill="#000000">NamePlace</text>
</g>
<!-- IndexQ3&#45;&gt;NamePlace -->
<g id="edge12" class="edge">
<title>IndexQ3-&gt;NamePlace</title>
<path fill="none" stroke="#000000" d="M783.0201,-431.8314C782.5923,-424.131 782.0836,-414.9743 781.6082,-406.4166"/>
<polygon fill="#000000" stroke="#000000" points="785.1019,-406.2037 781.0525,-396.4133 778.1126,-406.592 785.1019,-406.2037"/>
</g>
<!-- IndexQ4 -->
<g id="node11" class="node">
<title>IndexQ4</title>
<ellipse fill="none" stroke="#000000" cx="178.0295" cy="-378" rx="44.6472" ry="18"/>
<text text-anchor="middle" x="178.0295" y="-373.8" font-family="Times,serif" font-size="14.00" fill="#000000">IndexQ4</text>
</g>
<!-- HasForum -->
<g id="node12" class="node">
<title>HasForum</title>
<ellipse fill="none" stroke="#000000" cx="168.0295" cy="-234" rx="51.6054" ry="18"/>
<text text-anchor="middle" x="168.0295" y="-229.8" font-family="Times,serif" font-size="14.00" fill="#000000">HasForum</text>
</g>
<!-- IndexQ4&#45;&gt;HasForum -->
<g id="edge10" class="edge">
<title>IndexQ4-&gt;HasForum</title>
<path fill="none" stroke="#000000" d="M176.763,-359.7623C175.0573,-335.201 172.005,-291.2474 169.9985,-262.3541"/>
<polygon fill="#000000" stroke="#000000" points="173.4702,-261.8231 169.2857,-252.0896 166.487,-262.3081 173.4702,-261.8231"/>
</g>
<!-- TagInForums -->
<g id="node17" class="node">
<title>TagInForums</title>
<ellipse fill="none" stroke="#000000" cx="88.0295" cy="-306" rx="63.7045" ry="18"/>
<text text-anchor="middle" x="88.0295" y="-301.8" font-family="Times,serif" font-size="14.00" fill="#000000">TagInForums</text>
</g>
<!-- IndexQ4&#45;&gt;TagInForums -->
<g id="edge16" class="edge">
<title>IndexQ4-&gt;TagInForums</title>
<path fill="none" stroke="#000000" d="M157.6071,-361.6621C145.6673,-352.1102 130.3976,-339.8945 117.2065,-329.3416"/>
<polygon fill="#000000" stroke="#000000" points="119.3053,-326.5385 109.3101,-323.0245 114.9324,-332.0045 119.3053,-326.5385"/>
</g>
<!-- HasForum&#45;&gt;Query4 -->
<g id="edge31" class="edge">
<title>HasForum-&gt;Query4</title>
<path fill="none" stroke="#000000" d="M158.1419,-216.2022C153.4917,-207.832 147.8518,-197.6802 142.7159,-188.4356"/>
<polygon fill="#000000" stroke="#000000" points="145.7194,-186.6348 137.8034,-179.593 139.6003,-190.0344 145.7194,-186.6348"/>
</g>
<!-- IndexQ2orQ4 -->
<g id="node13" class="node">
<title>IndexQ2orQ4</title>
<ellipse fill="none" stroke="#000000" cx="87.0295" cy="-450" rx="64.8331" ry="18"/>
<text text-anchor="middle" x="87.0295" y="-445.8" font-family="Times,serif" font-size="14.00" fill="#000000">IndexQ2orQ4</text>
</g>
<!-- Tag -->
<g id="node14" class="node">
<title>Tag</title>
<ellipse fill="none" stroke="#000000" cx="88.0295" cy="-378" rx="27" ry="18"/>
<text text-anchor="middle" x="88.0295" y="-373.8" font-family="Times,serif" font-size="14.00" fill="#000000">Tag</text>
</g>
<!-- IndexQ2orQ4&#45;&gt;Tag -->
<g id="edge11" class="edge">
<title>IndexQ2orQ4-&gt;Tag</title>
<path fill="none" stroke="#000000" d="M87.2818,-431.8314C87.3888,-424.131 87.516,-414.9743 87.6348,-406.4166"/>
<polygon fill="#000000" stroke="#000000" points="91.1344,-406.4609 87.7738,-396.4133 84.1351,-406.3637 91.1344,-406.4609"/>
</g>
<!-- Tag&#45;&gt;TagInForums -->
<g id="edge14" class="edge">
<title>Tag-&gt;TagInForums</title>
<path fill="none" stroke="#000000" d="M88.0295,-359.8314C88.0295,-352.131 88.0295,-342.9743 88.0295,-334.4166"/>
<polygon fill="#000000" stroke="#000000" points="91.5296,-334.4132 88.0295,-324.4133 84.5296,-334.4133 91.5296,-334.4132"/>
</g>
<!-- Tag&#45;&gt;Query4 -->
<g id="edge32" class="edge">
<title>Tag-&gt;Query4</title>
<path fill="none" stroke="#000000" d="M67.6921,-365.8915C48.1426,-353.7685 20.7422,-335.3317 15.0295,-324 7.8268,-309.7129 9.3104,-302.943 15.0295,-288 31.6864,-244.4784 71.0733,-206.5233 98.6347,-183.9408"/>
<polygon fill="#000000" stroke="#000000" points="101.145,-186.415 106.7703,-177.4368 96.774,-180.9474 101.145,-186.415"/>
</g>
<!-- Tag&#45;&gt;Query2 -->
<g id="edge26" class="edge">
<title>Tag-&gt;Query2</title>
<path fill="none" stroke="#000000" d="M107.1601,-364.7598C135.5136,-345.6236 190.8622,-310.1119 242.0295,-288 287.0561,-268.5418 341.2216,-253.5266 378.8885,-244.3249"/>
<polygon fill="#000000" stroke="#000000" points="380.1469,-247.6223 389.0537,-241.8848 378.513,-240.8157 380.1469,-247.6223"/>
</g>
<!-- NamePlace&#45;&gt;Query3 -->
<g id="edge30" class="edge">
<title>NamePlace-&gt;Query3</title>
<path fill="none" stroke="#000000" d="M743.6543,-364.2879C711.0469,-351.9961 663.2783,-333.9891 629.4795,-321.2482"/>
<polygon fill="#000000" stroke="#000000" points="630.4986,-317.892 619.9068,-317.6396 628.0295,-324.4421 630.4986,-317.892"/>
</g>
<!-- QueryLoading&#45;&gt;Tag -->
<g id="edge13" class="edge">
<title>QueryLoading-&gt;Tag</title>
<path fill="none" stroke="#000000" d="M203.8262,-434.324C181.2712,-423.6284 150.7905,-409.0832 124.0295,-396 122.2874,-395.1483 120.5001,-394.2698 118.6976,-393.3802"/>
<polygon fill="#000000" stroke="#000000" points="120.2138,-390.2254 109.7005,-388.9137 117.1012,-396.4953 120.2138,-390.2254"/>
</g>
<!-- QueryLoading&#45;&gt;Query4 -->
<g id="edge38" class="edge">
<title>QueryLoading-&gt;Query4</title>
<path fill="none" stroke="#000000" d="M187.6908,-437.5393C136.7048,-424.356 63.0326,-404.3316 52.0295,-396 21.9452,-373.2199 17.4326,-360.2736 7.0295,-324 -6.5532,-276.64 .4289,-253.8003 32.0295,-216 46.4038,-198.8056 67.7373,-186.0369 86.6454,-177.2454"/>
<polygon fill="#000000" stroke="#000000" points="88.2402,-180.3673 95.9759,-173.1278 85.4141,-173.9631 88.2402,-180.3673"/>
</g>
<!-- QueryLoading&#45;&gt;Query1 -->
<g id="edge35" class="edge">
<title>QueryLoading-&gt;Query1</title>
<path fill="none" stroke="#000000" d="M249.6142,-432.1399C265.4793,-409.7497 292.0092,-372.7561 303.0295,-360 332.8207,-325.5163 335.1292,-308.0951 376.0295,-288 436.3526,-258.3621 631.5089,-242.7399 724.2282,-236.8311"/>
<polygon fill="#000000" stroke="#000000" points="724.449,-240.3242 734.2112,-236.2073 724.0123,-233.3379 724.449,-240.3242"/>
</g>
<!-- QueryLoading&#45;&gt;Query2 -->
<g id="edge36" class="edge">
<title>QueryLoading-&gt;Query2</title>
<path fill="none" stroke="#000000" d="M241.9308,-431.8036C247.6957,-412.6482 258.6122,-382.2434 275.0295,-360 307.9377,-315.4135 359.7214,-276.5402 393.0213,-254.1698"/>
<polygon fill="#000000" stroke="#000000" points="395.0692,-257.0117 401.479,-248.5757 391.2075,-251.1732 395.0692,-257.0117"/>
</g>
<!-- QueryLoading&#45;&gt;Query3 -->
<g id="edge37" class="edge">
<title>QueryLoading-&gt;Query3</title>
<path fill="none" stroke="#000000" d="M258.183,-432.7938C271.1563,-422.2162 288.0887,-408.3658 303.0295,-396 322.2306,-380.1082 323.672,-371.0171 346.0295,-360 379.8351,-343.3417 480.3677,-324.3173 541.0154,-313.8828"/>
<polygon fill="#000000" stroke="#000000" points="541.8504,-317.291 551.1199,-312.1602 540.674,-310.3906 541.8504,-317.291"/>
</g>
<!-- TagInForums&#45;&gt;HasForum -->
<g id="edge15" class="edge">
<title>TagInForums-&gt;HasForum</title>
<path fill="none" stroke="#000000" d="M107.3953,-288.5708C117.69,-279.3055 130.4959,-267.7802 141.6828,-257.7121"/>
<polygon fill="#000000" stroke="#000000" points="144.0265,-260.3115 149.1181,-251.0202 139.3438,-255.1084 144.0265,-260.3115"/>
</g>
<!-- TagInForums&#45;&gt;Query4 -->
<g id="edge33" class="edge">
<title>TagInForums-&gt;Query4</title>
<path fill="none" stroke="#000000" d="M90.9643,-287.8543C94.1375,-269.5222 99.736,-240.488 107.0295,-216 109.6711,-207.1308 113.1262,-197.6622 116.469,-189.1705"/>
<polygon fill="#000000" stroke="#000000" points="119.7764,-190.3277 120.286,-179.7452 113.2882,-187.7002 119.7764,-190.3277"/>
</g>
<!-- Default&#45;&gt;Query2 -->
<g id="edge25" class="edge">
<title>Default-&gt;Query2</title>
<path fill="none" stroke="#000000" d="M425.0295,-287.8314C425.0295,-280.131 425.0295,-270.9743 425.0295,-262.4166"/>
<polygon fill="#000000" stroke="#000000" points="428.5296,-262.4132 425.0295,-252.4133 421.5296,-262.4133 428.5296,-262.4132"/>
</g>
<!-- ValidateAnswers -->
<g id="node23" class="node">
<title>ValidateAnswers</title>
<ellipse fill="none" stroke="#000000" cx="516.0295" cy="-90" rx="77.5627" ry="18"/>
<text text-anchor="middle" x="516.0295" y="-85.8" font-family="Times,serif" font-size="14.00" fill="#000000">ValidateAnswers</text>
</g>
<!-- Query4&#45;&gt;ValidateAnswers -->
<g id="edge43" class="edge">
<title>Query4-&gt;ValidateAnswers</title>
<path fill="none" stroke="#000000" d="M165.2326,-155.0963C229.5978,-143.1523 362.7421,-118.4451 445.2192,-103.1401"/>
<polygon fill="#000000" stroke="#000000" points="446.0727,-106.5415 455.2662,-101.2757 444.7955,-99.659 446.0727,-106.5415"/>
</g>
<!-- Query1&#45;&gt;ValidateAnswers -->
<g id="edge40" class="edge">
<title>Query1-&gt;ValidateAnswers</title>
<path fill="none" stroke="#000000" d="M748.8216,-219.9305C703.6337,-194.7093 608.5651,-141.6478 554.9492,-111.7226"/>
<polygon fill="#000000" stroke="#000000" points="556.5157,-108.5887 546.0779,-106.7712 553.1041,-114.7011 556.5157,-108.5887"/>
</g>
<!-- Query2&#45;&gt;ValidateAnswers -->
<g id="edge41" class="edge">
<title>Query2-&gt;ValidateAnswers</title>
<path fill="none" stroke="#000000" d="M436.0062,-216.6302C451.7714,-191.6831 480.951,-145.5089 499.3807,-116.3454"/>
<polygon fill="#000000" stroke="#000000" points="502.3449,-118.2064 504.7284,-107.8831 496.4275,-114.4668 502.3449,-118.2064"/>
</g>
<!-- Query3&#45;&gt;ValidateAnswers -->
<g id="edge42" class="edge">
<title>Query3-&gt;ValidateAnswers</title>
<path fill="none" stroke="#000000" d="M582.9311,-287.9555C570.183,-250.235 540.6396,-162.8188 525.4384,-117.8399"/>
<polygon fill="#000000" stroke="#000000" points="528.6794,-116.498 522.1619,-108.1451 522.0479,-118.7393 528.6794,-116.498"/>
</g>
<!-- Finish -->
<g id="node24" class="node">
<title>Finish</title>
<ellipse fill="none" stroke="#000000" cx="516.0295" cy="-18" rx="35.3703" ry="18"/>
<text text-anchor="middle" x="516.0295" y="-13.8" font-family="Times,serif" font-size="14.00" fill="#000000">Finish</text>
</g>
<!-- ValidateAnswers&#45;&gt;Finish -->
<g id="edge39" class="edge">
<title>ValidateAnswers-&gt;Finish</title>
<path fill="none" stroke="#000000" d="M516.0295,-71.8314C516.0295,-64.131 516.0295,-54.9743 516.0295,-46.4166"/>
<polygon fill="#000000" stroke="#000000" points="519.5296,-46.4132 516.0295,-36.4133 512.5296,-46.4133 519.5296,-46.4132"/>
</g>
</g>
</svg>